# AST/ASF file generated using VICON BodyLanguage
# -----------------------------------------------
:version 1.10
:name VICON
:units
  mass 1.0
  length 0.45
  angle deg
:documentation
   .ast/.asf automatically generated from VICON data using
   VICON BodyBuilder and BodyLanguage model FoxedUp or BRILLIANT.MOD
:root
   order TX TY TZ RX RY RZ
   axis XYZ
   position 0 0 0  
   orientation 0 0 0 
:bonedata
  begin
     id 1 
     name lhipjoint
     direction 0.822369 -0.411937 0.392449 
     length 3.8167 
     axis 0 0 0  XYZ
  end
  begin
     id 2 
     name lfemur
     direction 0.34202 -0.939693 0  
     length 6.16791  
     axis 0 0 20  XYZ
    dof rx ry rz
    limits (-160.0 20.0)
           (-70.0 70.0)
           (-60.0 70.0)
  end
  begin
     id 3 
     name ltibia
     direction 0.34202 -0.939693 0   
     length 7.07101   
     axis 0 0 20   XYZ
    dof rx
    limits (-10.0 170.0)
  end
  begin
     id 4 
     name lfoot
     direction 0.028254 -0.0776273 0.996582   
     length 1.66799   
     axis -90 7.62852e-016 20   XYZ
    dof rx rz
    limits (-45.0 90.0)
           (-70.0 20.0)
  end
  begin
     id 5 
     name ltoes
     direction 1.53483e-011 -4.21688e-011 1   
     length 0.851674   
     axis -90 7.62852e-016 20   XYZ
    dof rx
    limits (-90.0 20.0)
  end
  begin
     id 6 
     name rhipjoint
     direction -0.822466 -0.411836 0.392353   
     length 3.81764  
     axis 0 0 0  XYZ 
  end
  begin
     id 7 
     name rfemur
     direction -0.34202 -0.939693 0   
     length 6.28636   
     axis 0 0 -20   XYZ
    dof rx ry rz
    limits (-160.0 20.0)
           (-70.0 70.0)
           (-70.0 60.0)
  end
  begin
     id 8 
     name rtibia
     direction -0.34202 -0.939693 0   
     length 6.85621   
     axis 0 0 -20   XYZ
    dof rx
    limits (-10.0 170.0)
 end
 begin
     id 9 
     name rfoot
     direction -0.0553036 -0.151945 0.98684   
     length 1.57293  
     axis -90 -7.62852e-016 -20   XYZ
    dof rx rz
    limits (-45.0 90.0)
           (-20.0 70.0)
  end
  begin
     id 10 
     name rtoes
     direction -1.53592e-011 -4.21964e-011 1   
     length 0.802812   
     axis -90 -7.62852e-016 -20   XYZ
    dof rx
    limits (-90.0 20.0)
  end
  begin
     id 11 
     name lowerback
     direction 0.00654913 0.996475 -0.0836396   
     length 1.97212   
     axis 0 0 0   XYZ
    dof rx ry rz
    limits (-20.0 45.0)
           (-30.0 30.0)
           (-30.0 30.0)
  end
  begin
     id 12 
     name upperback
     direction 0.0111875 0.994527 0.103877   
     length 1.89704   
     axis 0 0 0   XYZ
    dof rx ry rz
    limits (-20.0 45.0)
           (-30.0 30.0)
           (-30.0 30.0)
  end
  begin
     id 13 
     name thorax
     direction 0.00473652 0.989004 0.147814   
     length 1.94516   
     axis 0 0 0   XYZ
    dof rx ry rz
    limits (-20.0 45.0)
           (-30.0 30.0)
           (-30.0 30.0)
  end
  begin
     id 14 
     name lowerneck
     direction -0.00925808 0.999011 0.0434791   
     length 1.81771   
     axis 0 0 0   XYZ
    dof rx ry rz
    limits (-20.0 45.0)
           (-30.0 30.0)
           (-30.0 30.0)
  end
  begin
     id 15 
     name upperneck
     direction 0.00451595 0.964412 -0.264365   
     length 1.80434   
     axis 0 0 0   XYZ
    dof rx ry rz
    limits (-20.0 45.0)
           (-30.0 30.0)
           (-30.0 30.0)
  end
  begin
     id 16
     name head
     direction -0.00110849 0.995756 -0.0920241  
     length 1.84006  
     axis 0 0 0   XYZ
    dof rx ry rz
    limits (-20.0 45.0)
           (-30.0 30.0)
           (-30.0 30.0)
  end
  begin
     id 17 
     name lclavicle
     direction 0.921253 0.385213 0.0538957  
     length 3.67415  
     axis 0 0 0   XYZ
    dof ry rz
    limits (-20.0 10.0)
           (0.0 20.0)
  end
  begin
     id 18 
     name lhumerus
     direction 1 -4.48961e-011 6.73441e-028   
     length 4.32712   
     axis 180 -30 -90   XYZ
    dof rx ry rz
    limits (-60.0 90.0)
           (-90.0 90.0)
           (-90.0 90.0)
  end
  begin
     id 19
     name lradius
     direction 1 -4.48985e-011 -9.53507e-028   
     length 3.28587   
     axis 180 -30 -90   XYZ
    dof rx
    limits (-10.0 170.0)
  end
  begin
     id 20
     name lwrist
     direction 1 -4.48951e-011 -4.67472e-027   
     length 1.64293   
     axis 1.65735e-015 90 90   XYZ
    dof ry
    limits (-180.0 0.0)
 end
  begin
     id 21 
     name lhand
     direction 1 -4.48946e-011 -9.34945e-027   
     length 0.433158   
     axis 5.96574e-015 90 90   XYZ
    dof rx rz
    limits (-90.0 90.0)
           (-45.0 45.0)
  end
  begin
     id 22 
     name lfingers
     direction 1 -4.48882e-011 -1.86989e-026   
     length 0.349224   
     axis 1.19315e-014 90 90   XYZ
    dof rx
    limits (0.0 90.0)
  end
  begin
     id 23
     name lthumb
     direction 0.707107 -6.3493e-011 0.707107   
     length 0.501417   
     axis -90 45 2.85299e-015   XYZ
    dof rx rz
    limits (-45.0 45.0)
           (-45.0 45.0)
  end
  begin
     id 24 
     name rclavicle
     direction -0.884378 0.46502 -0.0403866   
     length 3.50218  
     axis 0 0 0   XYZ 
    dof ry rz
    limits (-10.0 20.0)
           (-20.0 0.0)
  end
  begin
     id 25 
     name rhumerus
     direction -1 -4.48964e-011 1.58188e-027  
     length 4.29104   
     axis 180 30 90   XYZ
    dof rx ry rz
    limits (-90.0 60.0)
           (-90.0 90.0)
           (-90.0 90.0)
  end
  begin
     id 26 
     name rradius
     direction -1 -4.48978e-011 -1.9722e-027   
     length 3.2272   
     axis 180 30 90   XYZ
    dof rx
    limits (-10.0 170.0)
  end
  begin
     id 27 
     name rwrist
     direction -1 -4.48969e-011 -4.67472e-027   
     length 1.6136   
     axis 1.65735e-015 -90 -90   XYZ
    dof ry
    limits (-180.0 0.0)
  end
  begin
     id 28
     name rhand
     direction -1 -4.48846e-011 -9.34945e-027   
     length 0.543623   
     axis 5.96574e-015 -90 -90   XYZ
    dof rx rz
    limits (-90.0 90.0)
           (-45.0 45.0)
  end
  begin
     id 29
     name rfingers
     direction -1 -4.49074e-011 -1.86989e-026   
     length 0.438283   
     axis 1.19315e-014 -90 -90   XYZ
    dof rx
    limits (0.0 90.0)
  end
  begin
     id 30
     name rthumb
     direction -0.707107 -6.34834e-011 0.707107   
     length 0.629289   
     axis -90 -45 -2.85299e-015   XYZ
    dof rx rz
    limits (-45.0 45.0)
           (-45.0 45.0)
  end
:hierarchy
  begin
    root lhipjoint rhipjoint lowerback
    lhipjoint lfemur
    lfemur ltibia
    ltibia lfoot
    lfoot ltoes
    rhipjoint rfemur
    rfemur rtibia
    rtibia rfoot
    rfoot rtoes
    lowerback upperback
    upperback thorax
    thorax lowerneck lclavicle rclavicle
    lowerneck upperneck
    upperneck head
    lclavicle lhumerus
    lhumerus lradius
    lradius lwrist
    lwrist lhand lthumb
    lhand lfingers
    rclavicle rhumerus
    rhumerus rradius
    rradius rwrist
    rwrist rhand rthumb
    rhand rfingers
  end

#!OML:ASF H:\GeneralSubjects\Female5\Project 1\Capture day 1\Session 1\Female5.ASF
:FULLY-SPECIFIED
:DEGREES
103
root -27.5949 14.8354 5.07801 -33.2592 84.9526 -36.6967
lowerback 13.7858 1.2455 3.98348
upperback -8.10766 2.86342 1.15755
thorax -16.9499 0.987374 -1.73416
lowerneck -16.3706 1.52421 1.38017
upperneck 45.6343 4.83777 0.129675
head 21.1567 2.99578 1.21695
rclavicle -1.63997e-015 8.74653e-015
rhumerus -63.6561 16.263 -89.0823
rradius 34.2797
rwrist -4.83444
rhand -16.3767 -23.9879
rfingers 7.12502
rthumb 9.83671 -53.7381
lclavicle -1.63997e-015 8.74653e-015
lhumerus -54.9432 3.0875 72.9629
lradius 23.5971
lwrist -26.5216
lhand -19.8335 27.0766
lfingers 7.12502
lthumb 6.50052 56.9568
rfemur -24.1524 0.783243 35.102
rtibia 36.9882
rfoot -15.8783 -8.99504
rtoes -23.6429
lfemur -29.0454 -8.69958 -25.6496
ltibia 45.2855
lfoot -18.0965 -12.7508
ltoes -18.4561
104
root -27.4382 14.8003 5.07254 -32.1903 84.4898 -35.0023
lowerback 13.657 1.39426 3.83599
upperback -8.00855 3.04404 1.30873
thorax -16.7479 1.10464 -1.52192
lowerneck -16.0411 1.48081 1.41519
upperneck 45.8435 4.85993 0.0658108
head 21.2151 3.02364 1.18736
rclavicle -8.44835e-016 1.43125e-014
rhumerus -63.3577 16.4531 -89.188
rradius 33.0824
rwrist -4.78043
rhand -16.3523 -23.8909
rfingers 7.12502
rthumb 9.86025 -53.6401
lclavicle -8.44835e-016 1.43125e-014
lhumerus -54.9683 2.88509 72.7907
lradius 23.0552
lwrist -27.0526
lhand -19.7678 27.1759
lfingers 7.12502
lthumb 6.56393 57.0542
rfemur -23.5108 0.713633 35.3489
rtibia 38.4995
rfoot -17.1485 -9.13761
rtoes -24.8749
lfemur -28.2977 -8.41175 -25.838
ltibia 46.7356
lfoot -18.7875 -13.9869
ltoes -18.5044
105
root -27.2897 14.818 5.07012 -31.8896 84.1429 -34.4284
lowerback 13.144 1.49596 3.72603
upperback -8.02503 3.15465 1.42691
thorax -16.4429 1.18882 -1.33705
lowerneck -15.7278 1.45348 1.46445
upperneck 46.0884 4.87409 0.0786721
head 21.3025 3.0625 1.19598
rclavicle 2.05742e-014 1.19271e-015
rhumerus -63.1913 16.8802 -89.7022
rradius 32.3316
rwrist -4.55505
rhand -16.7575 -23.3629
rfingers 7.12502
rthumb 9.46936 -53.1302
lclavicle 2.05742e-014 1.19271e-015
lhumerus -54.8128 2.56532 72.6206
lradius 22.5581
lwrist -27.8707
lhand -19.957 27.2808
lfingers 7.12502
lthumb 6.38135 57.1647
rfemur -22.4271 0.675924 35.5516
rtibia 38.4779
rfoot -18.0507 -9.33419
rtoes -25.6568
lfemur -27.1821 -8.1045 -25.8882
ltibia 46.6795
lfoot -19.1987 -14.6599
ltoes -18.6008
106
root -27.1467 14.874 5.06952 -31.4981 83.9766 -33.8721
lowerback 12.5015 1.5441 3.56602
upperback -8.08796 3.16918 1.47315
thorax -16.1147 1.22982 -1.17614
lowerneck -15.5001 1.44406 1.53562
upperneck 46.3237 4.87133 0.148765
head 21.4084 3.10303 1.22867
rclavicle -4.96962e-015 -1.61016e-014
rhumerus -63.0999 17.2877 -90.2971
rradius 32.0782
rwrist -4.04619
rhand -17.273 -22.7312
rfingers 7.12502
rthumb 8.97187 -52.5204
lclavicle -4.96962e-015 -1.61016e-014
lhumerus -54.5936 2.34738 72.2328
lradius 22.2916
lwrist -28.7202
lhand -20.4305 27.4933
lfingers 7.12502
lthumb 5.92423 57.3905
rfemur -20.8026 0.703081 35.579
rtibia 37.1811
rfoot -18.5633 -9.62292
rtoes -26.2252
lfemur -25.5096 -7.89527 -25.9848
ltibia 45.3109
lfoot -19.4102 -14.8793
ltoes -18.7769
107
root -27.0113 14.967 5.06936 -31.0763 83.9462 -33.4496
lowerback 11.7339 1.53959 3.41206
upperback -8.20476 3.10384 1.45173
thorax -15.771 1.22894 -1.07154
lowerneck -15.3832 1.46145 1.63601
upperneck 46.4609 4.86682 0.216512
head 21.4768 3.13948 1.25132
rclavicle 1.43125e-014 8.54774e-015
rhumerus -62.9821 17.4779 -90.6857
rradius 32.2723
rwrist -3.40899
rhand -17.975 -22.0948
rfingers 7.12502
rthumb 8.29446 -51.912
lclavicle 1.43125e-014 8.54774e-015
lhumerus -54.3683 2.34525 71.5387
lradius 22.3705
lwrist -29.2306
lhand -20.9697 27.52
lfingers 7.12502
lthumb 5.40363 57.4311
rfemur -18.976 0.896742 35.4833
rtibia 35.0788
rfoot -18.7129 -9.9848
rtoes -26.5708
lfemur -23.606 -7.86049 -26.0809
ltibia 43.0897
lfoot -19.4853 -14.7428
ltoes -18.9654
108
root -26.886 15.0915 5.06845 -30.5184 84.0085 -33.0401
lowerback 10.9074 1.49509 3.26937
upperback -8.36843 2.98256 1.375
thorax -15.4448 1.19646 -1.02183
lowerneck -15.3629 1.5021 1.7474
upperneck 46.4795 4.85916 0.27742
head 21.4857 3.16686 1.26243
rclavicle 6.43565e-015 1.94809e-014
rhumerus -62.7524 17.3618 -90.7078
rradius 32.8229
rwrist -2.88633
rhand -18.6719 -21.5176
rfingers 7.12502
rthumb 7.62181 -51.3603
lclavicle 6.43565e-015 1.94809e-014
lhumerus -54.1739 2.50648 70.6341
lradius 22.8428
lwrist -29.0686
lhand -21.5959 27.4501
lfingers 7.12502
lthumb 4.79901 57.3757
rfemur -17.2342 1.3087 35.3041
rtibia 32.6862
rfoot -18.6167 -10.4015
rtoes -26.622
lfemur -21.7388 -8.05773 -26.1845
ltibia 40.5188
lfoot -19.5139 -14.3942
ltoes -19.0535
109
root -26.7726 15.2388 5.06524 -29.732 84.1198 -32.5114
lowerback 10.1032 1.42535 3.14867
upperback -8.56269 2.83179 1.25527
thorax -15.1677 1.14329 -1.02894
lowerneck -15.4334 1.56005 1.84752
upperneck 46.4012 4.84346 0.351629
head 21.4476 3.1829 1.27654
rclavicle -8.4235e-015 -2.00773e-014
rhumerus -62.3885 17.0166 -90.4403
rradius 33.6171
rwrist -3.00328
rhand -19.2958 -20.9652
rfingers 7.12502
rthumb 7.01965 -50.8288
lclavicle -8.4235e-015 -2.00773e-014
lhumerus -53.9932 2.70891 69.6903
lradius 23.6493
lwrist -28.133
lhand -22.0891 27.5674
lfingers 7.12502
lthumb 4.32274 57.5033
rfemur -15.6811 1.9025 35.0689
rtibia 30.2426
rfoot -18.2137 -10.8542
rtoes -26.6335
lfemur -20.0212 -8.46269 -26.31
ltibia 37.8538
lfoot -19.515 -13.9141
ltoes -18.9778
